<svg xmlns="http://www.w3.org/2000/svg" version="1.1" xmlns:xlink="http://www.w3.org/1999/xlink" xmlns:svgjs="http://svgjs.dev/svgjs" width="66" height="66"><svg width="66" height="66" viewBox="0 -3 66 66" xmlns="http://www.w3.org/2000/svg" xmlns:xlink="http://www.w3.org/1999/xlink" overflow="hidden"><defs><clipPath id="SvgjsClipPath1026"><rect x="607" y="331" width="66" height="58"></rect></clipPath></defs><g clip-path="url(#clip0)" transform="translate(-607 -331)"><path d="M621.927 370.76 628.259 370.76C630.73 374.727 635.055 377.321 639.997 377.321 645.094 377.321 649.418 374.727 651.889 370.76L658.221 370.76C657.758 371.676 657.449 372.439 656.986 373.201L656.677 373.812 659.92 377.931C660.075 378.083 660.075 378.388 659.92 378.541L655.132 383.118C654.978 383.271 654.669 383.271 654.515 383.271L650.345 379.914 649.881 380.372C648.337 381.135 646.793 381.745 645.094 382.203L644.476 382.355 643.858 387.695C643.858 387.847 643.549 388 643.395 388L636.754 388C636.445 388 636.29 387.847 636.29 387.542L635.673 382.355 634.9 382.203C633.356 381.745 631.812 381.135 630.267 380.372L629.649 379.914 625.479 383.271C625.325 383.271 625.016 383.271 624.862 383.118L620.228 378.541C620.074 378.388 620.074 378.083 620.228 377.931L623.472 373.812 623.163 373.201C622.699 372.439 622.236 371.676 621.927 370.76ZM650.34 356.895C651.959 356.895 653.272 358.193 653.272 359.793 653.272 361.393 651.959 362.691 650.34 362.691 648.721 362.691 647.409 361.393 647.409 359.793 647.409 358.193 648.721 356.895 650.34 356.895ZM629.734 356.895C631.394 356.895 632.74 358.193 632.74 359.793 632.74 361.393 631.394 362.691 629.734 362.691 628.074 362.691 626.728 361.393 626.728 359.793 626.728 358.193 628.074 356.895 629.734 356.895ZM649.572 353.838C649.418 353.838 649.264 353.99 649.264 354.143L649.109 355.21C648.646 355.362 648.337 355.514 648.028 355.667L647.101 355.057C646.947 354.905 646.793 354.905 646.638 355.057L645.557 356.124C645.402 356.276 645.402 356.429 645.557 356.581L646.175 357.343C646.02 357.801 645.866 358.105 645.711 358.563L644.63 358.715C644.476 358.715 644.321 358.867 644.321 359.02L644.321 360.544C644.321 360.696 644.476 360.849 644.63 360.849L645.711 361.001C645.866 361.306 646.02 361.763 646.175 362.068L645.557 362.982C645.402 362.982 645.402 363.287 645.557 363.287L646.638 364.507C646.793 364.507 646.947 364.507 647.101 364.507L648.028 363.745C648.337 364.049 648.646 364.202 649.109 364.202L649.264 365.269C649.264 365.421 649.418 365.573 649.572 365.573L651.117 365.573C651.271 365.573 651.426 365.421 651.426 365.269L651.58 364.202C651.889 364.202 652.352 364.049 652.661 363.745L653.588 364.507C653.588 364.507 653.897 364.507 654.051 364.507L655.132 363.287C655.132 363.287 655.132 362.982 655.132 362.982L654.515 362.068C654.669 361.763 654.823 361.306 654.978 361.001L655.905 360.849C656.214 360.849 656.214 360.696 656.214 360.544L656.214 359.02C656.214 358.867 656.059 358.715 655.905 358.715L654.978 358.563C654.823 358.105 654.669 357.801 654.515 357.343L655.132 356.581C655.132 356.429 655.132 356.276 655.132 356.124L654.051 355.057C653.897 354.905 653.588 354.905 653.588 355.057L652.661 355.667C652.352 355.514 651.889 355.362 651.58 355.21L651.426 354.143C651.426 353.99 651.271 353.838 651.117 353.838ZM629.031 353.838C628.877 353.838 628.723 353.99 628.568 354.143L628.568 355.21C628.105 355.362 627.796 355.514 627.333 355.667L626.56 355.057C626.406 354.905 626.252 354.905 626.097 355.057L625.016 356.124C624.862 356.276 624.862 356.429 625.016 356.581L625.634 357.343C625.479 357.801 625.325 358.105 625.17 358.563L624.089 358.715C623.935 358.715 623.78 358.867 623.78 359.02L623.78 360.544C623.78 360.696 623.935 360.849 624.089 360.849L625.17 361.001C625.325 361.306 625.479 361.763 625.634 362.068L625.016 362.982C624.862 362.982 624.862 363.287 625.016 363.287L626.097 364.507C626.252 364.507 626.406 364.507 626.56 364.507L627.333 363.745C627.796 364.049 628.105 364.202 628.568 364.202L628.568 365.269C628.723 365.421 628.877 365.573 629.031 365.573L630.576 365.573C630.73 365.573 630.885 365.421 630.885 365.269L631.039 364.202C631.348 364.202 631.812 364.049 632.12 363.745L632.893 364.507C633.047 364.507 633.202 364.507 633.356 364.507L634.437 363.287C634.591 363.287 634.591 362.982 634.437 362.982L633.819 362.068C634.128 361.763 634.283 361.306 634.283 361.001L635.364 360.849C635.518 360.849 635.673 360.696 635.673 360.544L635.673 359.02C635.673 358.867 635.518 358.715 635.364 358.715L634.283 358.563C634.283 358.105 634.128 357.801 633.819 357.343L634.437 356.581C634.591 356.429 634.591 356.276 634.437 356.124L633.356 355.057C633.202 354.905 633.047 354.905 632.893 355.057L632.12 355.667C631.812 355.514 631.348 355.362 631.039 355.21L630.885 354.143C630.885 353.99 630.73 353.838 630.576 353.838ZM636.754 338.14 643.395 338.14C644.012 338.14 644.785 338.749 644.785 339.511L645.402 343.931C647.101 344.389 648.8 345.151 650.345 345.913L653.897 343.169C654.515 342.712 655.441 342.712 655.905 343.322L660.538 347.894C661.156 348.504 661.156 349.266 660.692 349.875L657.912 353.381C658.685 354.905 659.457 356.581 659.92 358.258L664.553 358.867C665.171 358.867 665.789 359.629 665.789 360.239L665.789 366.945C665.789 367.555 665.171 368.164 664.553 368.317L659.92 368.774 620.228 368.926 615.595 368.317C614.823 368.164 614.359 367.555 614.359 366.945L614.359 360.239C614.359 359.629 614.823 358.867 615.595 358.867L620.228 358.258C620.692 356.581 621.309 354.905 622.236 353.381L619.302 349.875C618.838 349.266 618.993 348.504 619.456 347.894L624.244 343.322C624.707 342.712 625.634 342.712 626.097 343.169L629.804 345.913C631.348 345.151 632.893 344.389 634.746 343.931L635.209 339.511C635.364 338.749 635.982 338.14 636.754 338.14ZM669.26 332C669.954 332 670.649 332.267 671.19 332.801 672.27 333.87 672.27 335.548 671.19 336.617 670.263 337.532 668.719 337.685 667.639 336.769L661.154 344.4 659.456 342.721 667.175 336.311C666.404 335.243 666.404 333.717 667.33 332.801 667.87 332.267 668.565 332 669.26 332ZM610.74 332C611.435 332 612.13 332.267 612.67 332.801 613.751 333.717 613.751 335.243 612.979 336.311L620.544 342.721 619 344.4 612.361 336.922C611.281 337.685 609.737 337.532 608.81 336.617 607.73 335.548 607.73 333.87 608.81 332.801 609.351 332.267 610.046 332 610.74 332Z" fill="#767171" fill-rule="evenodd"></path></g></svg><style>@media (prefers-color-scheme: light) { :root { filter: none; } }
@media (prefers-color-scheme: dark) { :root { filter: none; } }
</style></svg>