<?xml version="1.0" encoding="UTF-8"?>
<svg id="Layer_2" data-name="Layer 2" xmlns="http://www.w3.org/2000/svg" viewBox="0 0 410.31 128.62">
  <defs>
    <style>
      .cls-1 {
        fill: #d4202d;
      }
    </style>
  </defs>
  <g id="Layer_1-2" data-name="Layer 1">
    <g>
      <g>
        <path d="M346.89,123.04l7.54-16.72c1.48-3.29,1.96-4.01,3.52-4.41v-1.12s-7.9.01-7.9.01v1.12c2.61.56,2.89,1.88,1.69,4.69l-3.03,7.26-3.78-8.53c-.8-1.88-.69-2.96,2.08-3.29v-1.24s-10.54.02-10.54.02v1.24c1.24.32,1.73.84,2.81,3.08l6.72,14.41-1.12,2.41c-.64,1.4-1.24,2.45-1.92,3.05-.48-1.64-1.41-2.52-2.85-2.52s-2.68.97-2.68,2.85c0,1.88,1.53,3.28,3.33,3.28,2.56,0,4.17-1.29,6.12-5.58M336.18,118.01l-.6-1.28c-1.08.48-2.04.72-2.88.73-1.88,0-2.37-.96-2.37-2.28l-.02-12.06h5.09s0-2.29,0-2.29h-5.09s0-3.72,0-3.72h-.72s-7.2,4.74-7.2,4.74v1.28s2.93,0,2.93,0l.02,13.1c0,2.6,1.49,4,4.41,4,2.28,0,4.53-.77,6.45-2.22M320.96,118.59c-2.49-.36-2.85-.88-2.85-3.08l-.03-15.35h-1.96s-5.88,3.86-5.88,3.86v.88s2.85,0,2.85,0l.02,10.62c0,2.2-.4,2.73-2.84,3.09v1.24s10.7-.02,10.7-.02v-1.24ZM315.23,97.17c1.68,0,3.04-1.37,3.04-3.09,0-1.52-1.17-2.76-2.73-2.76-1.76,0-3.08,1.37-3.08,3.05,0,1.56,1.17,2.8,2.77,2.8M308.24,113.97c0-3.73-3.09-4.88-5.98-5.8-2.85-.92-4.81-1.51-4.81-3.6,0-1.12.84-2.17,2.48-2.17,2.04,0,3.85,1.24,6.02,3.68l1.04-.48-1.53-4.97h-.64s-.72.6-.72.6c-1.12-.48-2.41-.76-3.77-.75-4.25,0-7.01,2.46-7,6.14,0,3.73,3.09,4.8,5.98,5.76,2.85.96,4.81,1.51,4.81,3.64,0,1.32-1,2.33-2.92,2.33-2.68,0-4.73-1.75-7.18-4.88l-1.08.4,1.57,6.25h.68s1.16-.84,1.16-.84c1.32.64,2.81,1,4.45.99,4.09,0,7.45-2.42,7.44-6.3M287.38,118.65c-2.61-.4-2.97-.96-2.97-3.44v-8.26c.78-1.44,1.54-2.49,2.34-3.21,0,1.56,1.09,2.56,2.45,2.56,1.36,0,2.68-1.09,2.68-3.17,0-1.76-1.01-2.84-2.77-2.84-1.96,0-3.48,1.65-4.92,3.98v-4.05s-1.77,0-1.77,0l-5.8,3.82v.88s2.77,0,2.77,0l.02,10.66c0,2.2-.36,2.77-2.64,3.09v1.24s10.62-.02,10.62-.02v-1.24ZM262.27,107.8c0-3.25,1.35-5.17,4-5.18,1.84,0,3.01,1.32,3.49,3.92l-7.45,2.58c-.04-.44-.04-.88-.04-1.32M274.83,116.31l-1.08-.84c-1.08,1.24-2.72,2.09-4.6,2.09-3.69,0-5.78-2.79-6.54-6.44l12.01-4.03c-.25-4.25-3.38-6.57-7.34-6.56-5.57,0-9.65,4.51-9.64,10.08,0,5.53,3.54,9.73,9.75,9.72,3.81,0,6.09-1.69,7.45-4.02M253.82,106.49c1.48-3.29,1.96-4.01,3.52-4.41v-1.12s-7.9.01-7.9.01v1.12c2.61.56,2.89,1.88,1.69,4.69l-3.03,7.26-3.78-8.53c-.8-1.88-.69-2.96,2.08-3.29v-1.24s-10.54.02-10.54.02v1.24c1.24.32,1.77.84,2.81,3.08l6.88,14.85h2.08s6.19-13.68,6.19-13.68ZM235.53,118.75c-2.49-.36-2.85-.88-2.85-3.08l-.03-15.35h-1.96s-5.88,3.86-5.88,3.86v.88s2.85,0,2.85,0l.02,10.62c0,2.2-.4,2.73-2.84,3.09v1.24s10.7-.02,10.7-.02v-1.24ZM229.8,97.32c1.68,0,3.04-1.37,3.04-3.09,0-1.52-1.17-2.76-2.73-2.76-1.76,0-3.08,1.37-3.08,3.05,0,1.56,1.17,2.8,2.77,2.8M209.6,118.79c-2.28-.32-2.65-.88-2.65-3.08l-.02-9.26c2-1.81,3.64-2.69,5.08-2.69,1.96,0,2.53,1,2.53,2.8l.02,9.14c0,2.2-.36,2.77-2.64,3.09v1.24s10.3-.02,10.3-.02v-1.24c-2.29-.32-2.65-.88-2.65-3.08l-.02-9.58c0-3.21-1.37-5.49-5.42-5.48-2.48,0-4.93,1.53-7.33,3.58v-3.85s-1.85,0-1.85,0l-5.8,3.82v.88s2.77,0,2.77,0l.02,10.66c0,2.2-.36,2.77-2.64,3.09v1.24s10.3-.02,10.3-.02v-1.24ZM165.88,95.31l.02,12.02c.01,7.77,4.07,13.18,14.29,13.16,10.22-.02,14.26-5.44,14.24-13.05l-.02-9.66c0-4.69,1.31-5.89,3.59-6.54v-1.24s-9.7.02-9.7.02v1.24c2.29.64,3.61,1.84,3.62,6.53l.02,9.66c.01,6.77-3.55,9.9-10.28,9.92-6.69.01-10.3-3.11-10.32-9.88l-.02-12.18c0-3.05.88-3.57,3.4-3.93v-1.32s-12.18.02-12.18.02v1.32c2.53.36,3.33.88,3.34,3.92"/>
        <path d="M397.69,72.43c-2.28-.32-2.65-.88-2.65-3.08l-.02-9.26c2-1.81,3.64-2.69,5.08-2.69,1.96,0,2.53,1,2.53,2.8l.02,9.14c0,2.2-.36,2.77-2.64,3.09v1.24s10.3-.02,10.3-.02v-1.24c-2.29-.32-2.65-.88-2.65-3.08l-.02-9.58c0-3.21-1.37-5.49-5.42-5.48-2.48,0-4.93,1.53-7.33,3.58v-3.85s-1.85,0-1.85,0l-5.8,3.82v.88s2.77,0,2.77,0l.02,10.66c0,2.2-.36,2.77-2.64,3.09v1.24s10.3-.02,10.3-.02v-1.24ZM381.74,72.46c-2.61-.4-2.97-.96-2.97-3.44v-8.26c.78-1.44,1.54-2.49,2.34-3.21,0,1.56,1.09,2.56,2.45,2.56s2.68-1.09,2.68-3.17c0-1.76-1.01-2.84-2.77-2.84-1.96,0-3.48,1.65-4.92,3.98v-4.05s-1.77,0-1.77,0l-5.8,3.82v.88s2.77,0,2.77,0l.02,10.66c0,2.2-.36,2.77-2.64,3.09v1.24s10.62-.02,10.62-.02v-1.24ZM356.64,61.61c0-3.25,1.35-5.17,4-5.18,1.84,0,3.01,1.32,3.49,3.92l-7.45,2.58c-.04-.44-.04-.88-.04-1.32M369.19,70.12l-1.08-.84c-1.08,1.24-2.72,2.09-4.6,2.09-3.69,0-5.78-2.79-6.54-6.44l12.01-4.03c-.25-4.25-3.38-6.57-7.34-6.56-5.57,0-9.65,4.51-9.64,10.08,0,5.53,3.54,9.73,9.75,9.72,3.81,0,6.09-1.69,7.45-4.02M350.68,71.96l-.6-1.28c-1.08.48-2.04.72-2.88.73-1.88,0-2.37-.96-2.37-2.28l-.02-12.06h5.09s0-2.29,0-2.29h-5.09s0-3.72,0-3.72h-.72s-7.2,4.74-7.2,4.74v1.28s2.93,0,2.93,0l.02,13.1c0,2.6,1.49,4,4.41,4,2.28,0,4.53-.77,6.45-2.22M335.53,67.9c0-3.73-3.09-4.88-5.98-5.8-2.85-.92-4.81-1.51-4.81-3.6,0-1.12.84-2.17,2.48-2.17,2.04,0,3.85,1.24,6.02,3.68l1.04-.48-1.53-4.97h-.64s-.72.6-.72.6c-1.12-.48-2.41-.76-3.77-.75-4.25,0-7.01,2.46-7,6.14,0,3.73,3.09,4.8,5.98,5.76,2.85.96,4.81,1.51,4.81,3.64,0,1.32-1,2.33-2.92,2.33-2.68,0-4.73-1.75-7.18-4.88l-1.08.4,1.57,6.25h.68s1.16-.84,1.16-.84c1.32.64,2.81,1,4.45.99,4.09,0,7.45-2.42,7.44-6.3M304.68,68.71c0-2.04.92-3.01,5.6-4.3v5.81c-1.11.88-2.11,1.29-3.11,1.29-1.56,0-2.49-.84-2.49-2.8M313.5,74.07c1.72,0,3.56-.81,4.77-1.65l-.36-1.12c-1.96.36-2.68.08-2.69-1.24l-.02-10.7c0-3.21-1.41-4.93-5.94-4.92-5.09,0-8.81,2.74-8.81,5.31,0,1.24.85,2.28,2.29,2.28,1.64,0,2.44-1.09,2.68-2.17.24-1.24-.16-2.16-.77-2.68,1-.48,2-.72,3.04-.73,1.72,0,2.57.6,2.57,2.16v4.01c-7.16,1.78-10.45,3.34-10.44,7.15,0,2.93,1.89,4.48,4.86,4.48,1.88,0,4.05-.81,5.89-2.25.28,1.32,1.21,2.08,2.93,2.08M285.07,61.73c0-3.25,1.35-5.17,4-5.18,1.84,0,3.01,1.32,3.49,3.92l-7.45,2.58c-.04-.44-.04-.88-.04-1.32M297.63,70.25l-1.08-.84c-1.08,1.24-2.72,2.09-4.6,2.09-3.69,0-5.78-2.79-6.54-6.44l12.01-4.03c-.25-4.25-3.38-6.57-7.34-6.56-5.57,0-9.65,4.51-9.64,10.08,0,5.53,3.54,9.73,9.75,9.72,3.81,0,6.09-1.69,7.45-4.02M265.74,72.67c-2.28-.32-2.65-.88-2.65-3.08l-.02-9.3c1.92-1.77,3.4-2.65,5.08-2.65,1.96,0,2.53,1,2.53,2.8l.02,9.14c0,2.2-.36,2.77-2.64,3.09v1.24s10.3-.02,10.3-.02v-1.24c-2.29-.32-2.65-.88-2.65-3.08l-.02-9.58c0-3.21-1.37-5.49-5.42-5.48-2.44,0-4.85,1.45-7.21,3.46l-.03-15.87h-1.48s-6.44,4.22-6.44,4.22v.88s2.93,0,2.93,0l.04,22.4c0,2.2-.36,2.77-2.64,3.09v1.24s10.3-.02,10.3-.02v-1.24ZM254.23,72.13l-.6-1.28c-1.08.48-2.04.72-2.88.73-1.88,0-2.37-.96-2.37-2.28l-.02-12.06h5.09s0-2.29,0-2.29h-5.09s0-3.72,0-3.72h-.72s-7.2,4.74-7.2,4.74v1.28s2.93,0,2.93,0l.02,13.1c0,2.6,1.49,4,4.41,4,2.28,0,4.53-.77,6.45-2.22M234.6,72.72c-2.61-.4-2.97-.96-2.97-3.44v-8.26c.78-1.44,1.54-2.49,2.34-3.21,0,1.56,1.09,2.56,2.45,2.56,1.36,0,2.68-1.09,2.68-3.17,0-1.76-1.01-2.84-2.77-2.84-1.96,0-3.48,1.65-4.92,3.98v-4.05s-1.77,0-1.77,0l-5.8,3.82v.88s2.77,0,2.77,0l.02,10.66c0,2.2-.36,2.77-2.64,3.09v1.24s10.62-.02,10.62-.02v-1.24ZM205.65,62.47c0-3.61,1.55-5.89,4.84-5.9,4.25,0,5.5,5.2,5.51,9.97,0,3.61-1.55,5.89-4.84,5.9-4.25,0-5.5-5.2-5.51-9.97M221,64.25c0-5.25-3.54-9.65-9.99-9.64-6.49.01-10.37,4.71-10.36,10.16,0,5.25,3.54,9.65,9.99,9.64,6.49-.01,10.37-4.71,10.36-10.16M194.85,51.75c0-4.69,1.31-5.89,3.59-6.54v-1.24s-9.7.02-9.7.02v1.24c2.29.64,3.61,1.84,3.62,6.53l.02,14.11-20.47-20.6c-1.12-1.12-1.56-1.24-2.29-1.24h-7.57s0,1.26,0,1.26c1.64.16,2.61.8,4.49,2.6.6.56,1.16,1.24,1.17,2.36l.03,16.07c0,4.69-1.31,5.89-3.59,6.54v1.24s9.7-.02,9.7-.02v-1.24c-2.29-.64-3.61-1.84-3.62-6.53l-.03-15.15,23.04,23.08h1.64s-.04-22.48-.04-22.48Z"/>
      </g>
      <path class="cls-1" d="M137.55,34.23c0-19.6,6.59-26.03,19.76-31.01V0h-43.23v3.21c13.18,4.98,19.76,11.41,19.76,31.01v57.53L42.42,4.34C38.24.48,37.12,0,34.39,0H0v3.21c7.55.8,12.05,2.89,22.98,13.5l4.18,4.02v65.56c0,19.6-6.59,26.03-19.76,31.01v3.21h43.23v-3.21c-13.18-4.98-19.76-11.41-19.76-31.01V23.78l103.48,97.54h3.21V34.23Z"/>
    </g>
  </g>
</svg>